<svg xmlns="http://www.w3.org/2000/svg" width="24" height="24" viewBox="0 0 24 24" fill="none">
  <path fill-rule="evenodd" clip-rule="evenodd" d="M12 0C5.373 0 0 5.373 0 12s5.373 12 12 12 12-5.373 12-12S18.627 0 12 0z" fill="#fff"/>
  <path fill-rule="evenodd" clip-rule="evenodd" d="M12 0C5.373 0 0 5.373 0 12s5.373 12 12 12 12-5.373 12-12S18.627 0 12 0zm0 .8C5.814.8.8 5.814.8 12c0 6.186 5.014 11.2 11.2 11.2 6.186 0 11.2-5.014 11.2-11.2C23.2 5.814 18.186.8 12 .8z" fill="gray"/>
  <path d="M11.297 16v-3.319H8v-1.387h3.297V8h1.405v3.294H16v1.387h-3.297V16h-1.405z" fill="gray"/>
</svg>
